<svg xmlns="http://www.w3.org/2000/svg" viewBox="141 -209.4 290.9 427.4">
  <g fill="none" stroke-linejoin="round">
    <path stroke="#FF3B05" stroke-dasharray="8.1 8.1" stroke-dashoffset="1" d="M243-25.8l170.8 182m-113.8 0l70.3-139"/>
    <path stroke="#039" d="M300 70.3c0 11 5 21.4 13.6 28 8.6 6.4 19.7 8.2 29.8 4.8m0 .3c6.3-2 11.2-7.2 13.2-13.7 2-6.5 1-13.6-3-19m0-.2c-2.3-3.4-6-5.5-10.2-5.5s-8 2-10.3 5.4"/>
    <path stroke="#000" d="M186 156.3L300-208m0 0l114 364.3m-.2 0h-228m.2 0l184.3-139m0 0l-27 86m-43.3-33h53.7m-20.7 0l10.4 32.8M337 83l16.6-12.6m-20.6 0l10.4 7.7m-5 0h5M300 70.4l114 86M339.5 75l-2.4 8"/>
    <path stroke="#039" d="M337 83c1.5.4 3 0 4.4-.8 1.2-1 2-2.5 2-4m-10.4-8c-1.4 2-1.8 5-1 7.4s2.7 4.4 5 5.2m2.5-7.8c-.5.3-1 .7-1.2 1.3-.2.6 0 1.2.2 1.7m0 0c.2.4.6.6 1 .6.3 0 .6-.2 1-.5m3 0c0-1-.6-1.7-1.3-2.3-.8-.6-1.8-.8-2.7-.5M300-208c-69.5 23.5-124 80-146.4 152C131 16 143 95 186 156.3m0 0c26.4 38 68.7 60.3 114 60.3 45 0 87.3-22.4 114-60.3m-.2 0c16.4-23.4 21-53.5 12.4-81-8.6-27.6-29.4-49.2-56-58m0 0c-16.3-5.6-34.2-2.7-48 8-14 10.3-22 27-22 45"/>
  </g>
</svg>
