<svg xmlns="http://www.w3.org/2000/svg" width="288" height="425" viewBox="0 0 288 425">
  <g fill="none" stroke-linejoin="round">
    <path stroke="#EF4223" stroke-dasharray="8.1 8.1" stroke-dashoffset="1" d="M100.5 182l171 182.2m-114 0l70.4-139"/>
    <path stroke="#243E90" d="M157.5 278.2c0 11 5 21.4 13.7 28 8.6 6.4 19.7 8.2 29.8 4.8m0 0c6.3-2 11.2-7 13.2-13.6 2-6.5 1-13.6-3-19m0-.2c-2.3-3.4-6-5.5-10.2-5.5s-8 2-10.3 5.5"/>
    <path stroke="#010101" d="M43.5 364.2L157.5 0m0 0l114 364.2m0 0h-228m0 0l184.4-139m0-.2l-27 86m-43.6-32.8h53.8m-20.6 0L201 311m-6.4-20.2l16.6-12.5m-20.5 0L201 286m-5 0h5m-43.5-7.8l114 86M197 283l-2.3 7.8"/>
    <path stroke="#243E90" d="M194.6 290.8c1.5.5 3 .2 4.4-.7 1.2-1 2-2.2 2-4m-10.3-7.7c-1.5 2-2 4.8-1 7.3.7 2.5 2.6 4.4 5 5.2m2.3-7.7c-.4.3-1 .7-1 1.3s-.2 1.2 0 1.7m0 0c.3.3.7.5 1 .5.4 0 .7-.2 1-.5m3 0c0-1-.5-2-1.2-2.5-.8-.6-1.8-.8-2.7-.5M157.7 0C88 23.4 33.6 80 11.2 152-11.4 224 .7 303 43.6 364m0 .2c26.4 38 68.7 60.3 114 60.3 45 0 87.3-22.4 114-60.3m-.2 0c16.4-23.4 21-53.5 12.4-81-8.6-27.6-29.4-49.2-56-58m.2-.2c-16.5-5.4-34.4-2.5-48.3 8-14 10.5-22.2 27.3-22.2 45.2"/>
  </g>
</svg>
